<?xml version="1.0" encoding="UTF-8" standalone="no"?>
<!--
  cheese_block.svg
 
  Copyright (C) 2008 Jeremiah LaRocco

  This file is part of QRodent

  QRodent is free software: you can redistribute it and/or modify
  it under the terms of the GNU General Public License as published by
  the Free Software Foundation, either version 3 of the License, or
  (at your option) any later version.

  QRodent is distributed in the hope that it will be useful,
  but WITHOUT ANY WARRANTY; without even the implied warranty of
  MERCHANTABILITY or FITNESS FOR A PARTICULAR PURPOSE.  See the
  GNU General Public License for more details.

  You should have received a copy of the GNU General Public License
  along with QRodent.  If not, see <http://www.gnu.org/licenses/>.
-->
<!-- Created with Inkscape (http://www.inkscape.org/) -->
<svg
   xmlns:svg="http://www.w3.org/2000/svg"
   xmlns="http://www.w3.org/2000/svg"
   xmlns:xlink="http://www.w3.org/1999/xlink"
   version="1.0"
   width="64"
   height="64"
   id="svg4538">
  <defs
     id="defs4540">
    <linearGradient
       id="linearGradient5090">
      <stop
         id="stop5092"
         style="stop-color:#eeea00;stop-opacity:1"
         offset="0" />
      <stop
         id="stop5094"
         style="stop-color:#ffff00;stop-opacity:0.2576687"
         offset="1" />
    </linearGradient>
    <linearGradient
       x1="10.222418"
       y1="40.370499"
       x2="37.601147"
       y2="40.370499"
       id="linearGradient5096"
       xlink:href="#linearGradient5090"
       gradientUnits="userSpaceOnUse"
       gradientTransform="matrix(0.9587672,0,0,1.0362595,1.531405,-2.1910879)" />
    <linearGradient
       x1="36.378948"
       y1="46.434742"
       x2="61.046097"
       y2="46.434742"
       id="linearGradient5106"
       xlink:href="#linearGradient5090"
       gradientUnits="userSpaceOnUse"
       gradientTransform="matrix(1.0899974,0,0,1.0150166,-5.4749045,-2.9700154)" />
  </defs>
  <g
     id="layer1">
    <path
       d="M 11.818182,17.636364 C 11.818182,17.990207 11.818182,19.460549 11.818182,20.363636 C 11.818182,21.488584 11.952173,21.904346 12.363636,22.727273 C 12.801972,23.603944 13.719764,24.426187 14.363636,24.909091 C 15.025214,25.405274 15.214041,25.941314 16,26.727273 C 16.735089,27.462362 17.990336,28.478406 18.909091,29.090909 C 19.878943,29.737477 20.584102,30.220466 21.454545,31.090909 C 21.981827,31.61819 22.923249,32.014158 23.454545,32.545455 C 24.131634,33.222543 25.412782,34.321873 26.181818,35.090909 C 26.878781,35.787872 27.716573,36.807482 28.545455,37.636364 C 29.140751,38.23166 29.714292,38.88313 30.181818,39.818182 C 30.49373,40.442006 31.619615,41.437797 32,41.818182 C 32.806062,42.624244 33.20034,43.072812 34,43.272727 C 34.737402,43.457078 35.334971,43.976085 36.363636,44.181818 C 37.009642,44.311019 37.878379,44.560504 38.545455,44.727273 C 39.504121,44.966939 40.9404,44.219445 41.818182,44 C 42.583056,43.808781 43.333842,42.847977 43.818182,42.363636 C 44.325067,41.856751 45.058178,41.644547 45.818182,41.454545 C 47.288908,41.086864 48.392772,41.297436 49.818182,40.727273 C 50.548601,40.435105 51.302832,39.242623 51.818182,38.727273 C 52.326811,38.218644 53.196751,38.037988 54,37.636364 C 54.657802,37.307463 55.445023,36.918613 56,36.363636 C 56.76341,35.600227 57.238666,35.159031 57.636364,34.363636 C 57.994831,33.646702 58.583064,33.01569 58.909091,32.363636 C 59.304735,31.572347 59.636364,31.15387 59.636364,30 C 59.636364,28.928023 59.750389,28.271172 60,27.272727 C 60.198212,26.47988 60,25.367538 60,24.545455 C 60,23.418774 59.678306,22.713225 59.454545,21.818182 C 59.236933,20.947731 58.60917,20.800316 58.363636,19.818182 C 58.179838,19.08299 57.513097,18.117102 57.272727,17.636364 C 56.779685,16.650278 55.996889,16.953768 55.090909,16.727273 C 54.172963,16.497786 53.284082,16.547725 52.363636,16.363636 C 51.414875,16.173884 50.457164,16.181818 49.454545,16.181818 C 48.377483,16.181818 47.434765,16 46.363636,16 C 45.094237,16 43.696634,16.105977 42.545455,15.818182 C 41.113972,15.460311 39.317116,15.818182 37.818182,15.818182 C 36.363636,15.818182 34.909091,15.818182 33.454545,15.818182 C 31.982796,15.818182 30.161796,15.942731 28.727273,16.181818 C 27.465824,16.39206 26.152836,16.114887 24.909091,16.363636 C 23.37254,16.670947 21.577329,16.363636 20,16.363636 C 18.909091,16.363636 17.818182,16.363636 16.727273,16.363636 C 15.575758,16.363636 14.424242,16.363636 13.272727,16.363636 C 11.853814,16.363636 11.833581,17.713359 11.636364,16.727273"
       id="path4561"
       style="fill:#ffff00;fill-rule:evenodd;stroke:#ffff00;stroke-width:1px;stroke-linecap:butt;stroke-linejoin:miter;stroke-opacity:1" />
    <path
       d="M 11.990683,18.910924 C 11.766864,19.324906 11.816362,21.093159 11.816362,22.113908 C 11.816362,23.118766 11.816362,24.123623 11.816362,25.128481 C 11.816362,26.258946 11.816362,27.389412 11.816362,28.519877 C 11.816362,29.473946 11.990683,30.080575 11.990683,31.157628 C 11.990683,32.137372 12.471776,33.237539 12.687969,34.172201 C 12.95432,35.32372 13.326505,35.990734 13.559575,36.998364 C 13.768082,37.899804 14.094854,38.935714 14.25686,39.636115 C 14.495731,40.668825 14.57465,41.076709 14.954145,41.897045 C 15.383325,42.82478 16.273071,43.510983 16.697359,43.969564 C 17.751629,45.109046 18.853975,46.424298 20.009463,47.360959 C 20.964432,48.135075 21.62201,48.915428 22.449962,49.810299 C 23.670987,51.130015 24.282059,52.143281 25.587745,53.201694 C 26.552577,53.983805 27.49999,54.798898 28.551207,55.651035 C 29.455809,56.384321 30.132057,56.606014 30.643062,57.158321 C 31.073421,57.623464 31.995201,58.065979 32.734919,58.665608 C 33.495195,59.281903 34.162547,59.454982 34.652453,59.984484 C 35.381348,60.772293 36.337966,60.376897 36.395665,60.361305 C 36.505152,60.331722 36.892184,57.461063 36.91863,57.346732 C 37.165015,56.281536 37.092951,54.668906 37.092951,53.578516 C 37.092951,52.259641 37.092951,50.940764 37.092951,49.621889 C 37.092951,48.554227 37.092951,47.486566 37.092951,46.418905 C 37.092951,45.518882 37.060859,44.396052 36.91863,43.781153 C 36.731626,42.972681 35.457549,42.549671 34.652453,41.897045 C 33.706944,41.130598 32.989333,40.693591 32.386276,39.824526 C 31.784314,38.957037 30.718296,38.210143 30.29442,37.752007 C 29.359241,36.741242 28.369468,35.859881 27.505279,34.925844 C 27.413403,34.826543 27.389065,34.67463 27.330958,34.549022 C 26.855136,33.520462 24.909005,32.256023 24.018853,31.53445 C 22.888555,30.618209 21.746191,29.487491 20.88107,28.708287 C 19.931644,27.85315 19.509919,27.485965 18.789214,26.447358 C 18.23823,25.653333 17.154928,24.869391 16.348715,23.998016 C 15.755373,23.356717 15.531081,22.191685 14.954145,21.360265 C 14.312002,20.434872 13.46844,19.566067 12.86229,18.910924 C 12.65685,18.68888 12.281219,18.910924 11.990683,18.910924 z"
       id="path4577"
       style="fill:url(#linearGradient5096);fill-opacity:1;fill-rule:evenodd;stroke:#ffff00;stroke-width:0.99676055px;stroke-linecap:butt;stroke-linejoin:miter;stroke-opacity:1" />
    <path
       d="M 34.755905,42.428906 C 34.69785,42.879307 34.691149,44.77138 34.954086,45.750777 C 35.170137,46.55553 34.954086,47.684576 34.954086,48.519005 C 34.954086,49.441747 34.954086,50.36449 34.954086,51.287231 C 34.954086,52.209972 34.954086,53.132715 34.954086,54.055458 C 34.954086,55.039716 34.954086,56.023975 34.954086,57.008234 C 34.954086,57.889806 34.99057,58.989618 35.152267,59.591913 C 35.299574,60.140603 36.603832,60.452317 37.134081,60.699203 C 37.836579,61.026288 39.874723,60.699203 40.701343,60.699203 C 41.916399,60.699203 42.229377,60.205061 43.277703,59.961008 C 44.66292,59.638527 44.870197,59.95445 45.854059,59.038266 C 46.354732,58.572036 48.125979,57.695067 49.02496,57.192782 C 50.294631,56.483383 51.426773,55.976709 52.592224,55.162749 C 53.264531,54.693205 54.072078,53.969242 54.772219,53.317264 C 55.520675,52.620294 56.122992,51.976816 56.35767,51.102682 C 56.519524,50.499802 57.260493,49.605794 57.546758,49.07265 C 58.034668,48.163957 58.485275,47.509284 58.934027,46.67352 C 59.382028,45.839152 59.330389,44.731041 59.330389,43.720745 C 59.330389,42.685715 59.464174,41.192379 59.726752,40.214325 C 59.973848,39.293932 59.924933,38.229991 59.924933,37.261549 C 59.924933,35.662129 59.924933,34.062708 59.924933,32.463288 C 59.924933,31.266218 60.080045,29.855486 60.321295,28.956867 C 60.663653,27.681643 60.62324,27.014758 59.726752,27.849577 C 58.483951,29.006887 59.092981,30.229967 57.744939,31.17145 C 56.922053,31.746159 56.510625,33.059047 55.564944,33.939676 C 54.637608,34.80322 54.312285,35.475262 53.384949,36.338806 C 52.633294,37.038755 51.180018,37.180885 50.214049,37.630644 C 49.145836,38.12801 48.238474,38.458209 47.241327,38.922485 C 46.030519,39.486244 44.032023,39.900304 42.683157,40.214325 C 41.202944,40.558921 40.192845,40.912456 38.917713,41.506163 C 37.719352,42.064125 36.119985,41.920807 34.755905,42.428906 z"
       id="path5098"
       style="fill:url(#linearGradient5106);fill-opacity:1;fill-rule:evenodd;stroke:#ffff00;stroke-width:1.05183899px;stroke-linecap:butt;stroke-linejoin:miter;stroke-opacity:1" />
  </g>
</svg>
