<?xml version="1.0" encoding="UTF-8" standalone="no"?>
<!-- Created with Inkscape (http://www.inkscape.org/) -->
<svg
   xmlns:dc="http://purl.org/dc/elements/1.1/"
   xmlns:cc="http://creativecommons.org/ns#"
   xmlns:rdf="http://www.w3.org/1999/02/22-rdf-syntax-ns#"
   xmlns:svg="http://www.w3.org/2000/svg"
   xmlns="http://www.w3.org/2000/svg"
   xmlns:xlink="http://www.w3.org/1999/xlink"
   xmlns:sodipodi="http://sodipodi.sourceforge.net/DTD/sodipodi-0.dtd"
   xmlns:inkscape="http://www.inkscape.org/namespaces/inkscape"
   id="svg1"
   sodipodi:version="0.32"
   inkscape:version="0.46"
   width="210mm"
   height="297mm"
   sodipodi:docbase="/usr/home/guenther"
   sodipodi:docname="mouse_block.svg"
   inkscape:output_extension="org.inkscape.output.svg.inkscape">
  <metadata
     id="metadata2717">
    <rdf:RDF>
      <cc:Work
         rdf:about="">
        <dc:format>image/svg+xml</dc:format>
        <dc:type
           rdf:resource="http://purl.org/dc/dcmitype/StillImage" />
      </cc:Work>
    </rdf:RDF>
  </metadata>
  <defs
     id="defs3">
    <inkscape:perspective
       sodipodi:type="inkscape:persp3d"
       inkscape:vp_x="0 : 526.18109 : 1"
       inkscape:vp_y="0 : 1000 : 0"
       inkscape:vp_z="744.09448 : 526.18109 : 1"
       inkscape:persp3d-origin="372.04724 : 350.78739 : 1"
       id="perspective2719" />
    <linearGradient
       id="linearGradient834">
      <stop
         style="stop-color:#ffffff;stop-opacity:0.0000000;"
         offset="0.0000000"
         id="stop835" />
      <stop
         style="stop-color:#ffffff;stop-opacity:0.19354838;"
         offset="1.0000000"
         id="stop836" />
    </linearGradient>
    <linearGradient
       xlink:href="#linearGradient834"
       id="linearGradient837"
       x1="187.60558"
       y1="369.16906"
       x2="260.85301"
       y2="242.05752"
       gradientTransform="scale(1.3443755,0.7438398)"
       gradientUnits="userSpaceOnUse" />
    <linearGradient
       xlink:href="#linearGradient834"
       id="linearGradient838"
       x1="170.35378"
       y1="1119.3928"
       x2="198.69965"
       y2="962.14016"
       gradientTransform="scale(1.8411899,0.543127)"
       gradientUnits="userSpaceOnUse" />
    <linearGradient
       inkscape:collect="always"
       xlink:href="#linearGradient834"
       id="linearGradient2727"
       gradientUnits="userSpaceOnUse"
       gradientTransform="scale(1.8411899,0.543127)"
       x1="170.35378"
       y1="1119.3928"
       x2="198.69965"
       y2="962.14016" />
    <linearGradient
       inkscape:collect="always"
       xlink:href="#linearGradient834"
       id="linearGradient2730"
       gradientUnits="userSpaceOnUse"
       gradientTransform="scale(1.3443755,0.7438398)"
       x1="187.60558"
       y1="369.16906"
       x2="260.85301"
       y2="242.05752" />
    <linearGradient
       inkscape:collect="always"
       xlink:href="#linearGradient834"
       id="linearGradient2739"
       gradientUnits="userSpaceOnUse"
       gradientTransform="scale(1.3443755,0.7438398)"
       x1="187.60558"
       y1="369.16906"
       x2="260.85301"
       y2="242.05752" />
    <linearGradient
       inkscape:collect="always"
       xlink:href="#linearGradient834"
       id="linearGradient2742"
       gradientUnits="userSpaceOnUse"
       gradientTransform="scale(1.8411899,0.543127)"
       x1="170.35378"
       y1="1119.3928"
       x2="198.69965"
       y2="962.14016" />
    <linearGradient
       inkscape:collect="always"
       xlink:href="#linearGradient834"
       id="linearGradient2745"
       gradientUnits="userSpaceOnUse"
       gradientTransform="scale(1.8411899,0.543127)"
       x1="170.35378"
       y1="1119.3928"
       x2="198.69965"
       y2="962.14016" />
    <linearGradient
       inkscape:collect="always"
       xlink:href="#linearGradient834"
       id="linearGradient2748"
       gradientUnits="userSpaceOnUse"
       gradientTransform="scale(1.3443755,0.7438398)"
       x1="187.60558"
       y1="369.16906"
       x2="260.85301"
       y2="242.05752" />
    <linearGradient
       inkscape:collect="always"
       xlink:href="#linearGradient834"
       id="linearGradient2757"
       gradientUnits="userSpaceOnUse"
       gradientTransform="scale(1.3443755,0.7438398)"
       x1="187.60558"
       y1="369.16906"
       x2="260.85301"
       y2="242.05752" />
    <linearGradient
       inkscape:collect="always"
       xlink:href="#linearGradient834"
       id="linearGradient2760"
       gradientUnits="userSpaceOnUse"
       gradientTransform="scale(1.8411899,0.543127)"
       x1="170.35378"
       y1="1119.3928"
       x2="198.69965"
       y2="962.14016" />
    <linearGradient
       inkscape:collect="always"
       xlink:href="#linearGradient834"
       id="linearGradient2763"
       gradientUnits="userSpaceOnUse"
       gradientTransform="scale(1.8411899,0.543127)"
       x1="170.35378"
       y1="1119.3928"
       x2="198.69965"
       y2="962.14016" />
    <linearGradient
       inkscape:collect="always"
       xlink:href="#linearGradient834"
       id="linearGradient2766"
       gradientUnits="userSpaceOnUse"
       gradientTransform="scale(1.3443755,0.7438398)"
       x1="187.60558"
       y1="369.16906"
       x2="260.85301"
       y2="242.05752" />
    <linearGradient
       inkscape:collect="always"
       xlink:href="#linearGradient834"
       id="linearGradient2775"
       gradientUnits="userSpaceOnUse"
       gradientTransform="scale(1.3443755,0.7438398)"
       x1="187.60558"
       y1="369.16906"
       x2="260.85301"
       y2="242.05752" />
    <linearGradient
       inkscape:collect="always"
       xlink:href="#linearGradient834"
       id="linearGradient2778"
       gradientUnits="userSpaceOnUse"
       gradientTransform="scale(1.8411899,0.543127)"
       x1="170.35378"
       y1="1119.3928"
       x2="198.69965"
       y2="962.14016" />
    <linearGradient
       inkscape:collect="always"
       xlink:href="#linearGradient834"
       id="linearGradient2781"
       gradientUnits="userSpaceOnUse"
       gradientTransform="scale(1.8411899,0.543127)"
       x1="170.35378"
       y1="1119.3928"
       x2="198.69965"
       y2="962.14016" />
    <linearGradient
       inkscape:collect="always"
       xlink:href="#linearGradient834"
       id="linearGradient2784"
       gradientUnits="userSpaceOnUse"
       gradientTransform="scale(1.3443755,0.7438398)"
       x1="187.60558"
       y1="369.16906"
       x2="260.85301"
       y2="242.05752" />
    <linearGradient
       inkscape:collect="always"
       xlink:href="#linearGradient834"
       id="linearGradient2793"
       gradientUnits="userSpaceOnUse"
       gradientTransform="scale(1.3443755,0.7438398)"
       x1="187.60558"
       y1="369.16906"
       x2="260.85301"
       y2="242.05752" />
    <linearGradient
       inkscape:collect="always"
       xlink:href="#linearGradient834"
       id="linearGradient2796"
       gradientUnits="userSpaceOnUse"
       gradientTransform="scale(1.8411899,0.543127)"
       x1="170.35378"
       y1="1119.3928"
       x2="198.69965"
       y2="962.14016" />
    <linearGradient
       inkscape:collect="always"
       xlink:href="#linearGradient834"
       id="linearGradient2799"
       gradientUnits="userSpaceOnUse"
       gradientTransform="scale(1.8411899,0.543127)"
       x1="170.35378"
       y1="1119.3928"
       x2="198.69965"
       y2="962.14016" />
    <linearGradient
       inkscape:collect="always"
       xlink:href="#linearGradient834"
       id="linearGradient2802"
       gradientUnits="userSpaceOnUse"
       gradientTransform="scale(1.3443755,0.7438398)"
       x1="187.60558"
       y1="369.16906"
       x2="260.85301"
       y2="242.05752" />
    <linearGradient
       inkscape:collect="always"
       xlink:href="#linearGradient834"
       id="linearGradient2811"
       gradientUnits="userSpaceOnUse"
       gradientTransform="scale(1.3443755,0.7438398)"
       x1="187.60558"
       y1="369.16906"
       x2="260.85301"
       y2="242.05752" />
    <linearGradient
       inkscape:collect="always"
       xlink:href="#linearGradient834"
       id="linearGradient2814"
       gradientUnits="userSpaceOnUse"
       gradientTransform="scale(1.8411899,0.543127)"
       x1="170.35378"
       y1="1119.3928"
       x2="198.69965"
       y2="962.14016" />
  </defs>
  <sodipodi:namedview
     id="base"
     pagecolor="#ffffff"
     bordercolor="#666666"
     borderopacity="1.0"
     inkscape:pageopacity="0.0"
     inkscape:pageshadow="2"
     inkscape:zoom="1.1598011"
     inkscape:cx="298.27826"
     inkscape:cy="528.54804"
     inkscape:window-width="1920"
     inkscape:window-height="1389"
     inkscape:window-x="0"
     inkscape:window-y="0"
     showgrid="false"
     inkscape:current-layer="svg1" />
  <path
     style="fill:#0c1012;fill-opacity:1;fill-rule:evenodd;stroke:none;stroke-width:1pt;stroke-linecap:butt;stroke-linejoin:miter;stroke-opacity:1"
     d="M 57.121861,309.77798 C 46.627945,220.6264 132.28851,152.02544 213.37952,139.73764 C 278.51526,127.69526 345.85823,142.22307 405.64539,168.76733 C 463.92693,186.34307 525.50479,109.02855 573.90422,139.51018 C 547.07557,174.31846 487.53311,206.20983 511.05535,260.13579 C 535.0517,302.21128 557.8376,346.4177 558.35982,396.45817 C 561.93235,469.96476 543.26264,556.23163 474.04147,595.23221 C 417.2192,619.66452 401.14767,685.43067 346.65615,711.21196 C 278.52276,744.50296 326.34603,660.4443 290.49099,631.61885 C 271.1619,616.06459 198.58199,595.79614 258.75069,578.37238 C 308.52786,549.63863 359.24773,576.09498 401.70017,596.90312 C 448.91276,567.84159 437.96932,498.00036 415.68802,455.71068 C 392.77559,410.35818 365.72234,348.01345 303.68097,372.291 C 278.43523,372.32272 293.8106,291.65215 266.43785,329.71716 C 296.84695,363.27146 240.37364,470.31933 222.72776,397.14498 C 234.65766,339.81307 186.24712,295.61533 133.28045,330.63383 C 106.31276,339.73313 71.838677,338.5355 57.121861,309.77798 z"
     id="path828" />
  <path
     style="fill:#ffffff;fill-opacity:0.9435484;fill-rule:evenodd;stroke:none;stroke-width:1pt;stroke-linecap:butt;stroke-linejoin:miter;stroke-opacity:1"
     d="M 59.277405,301.15582 C 95.340948,357.08172 161.64053,314.61801 210.339,309.87845 C 247.30701,320.90854 328.56597,297.03452 273.37373,254.06798 C 235.4963,223.22802 170.94317,219.60491 144.85615,267.30202 C 124.92671,293.92396 93.463271,314.54147 59.277405,301.15582 z"
     id="path829" />
  <path
     style="fill:#ffffff;fill-opacity:0.95967742;fill-rule:evenodd;stroke:none;stroke-width:1pt;stroke-linecap:butt;stroke-linejoin:miter;stroke-opacity:1"
     d="M 127.17698,244.03395 C 166.41186,275.9197 157.37456,168.6066 132.06948,232.77337 L 127.17698,244.03395 L 127.17698,244.03395 z"
     id="path830" />
  <path
     style="fill:#ffffff;fill-opacity:0.95967742;fill-rule:evenodd;stroke:none;stroke-width:1pt;stroke-linecap:butt;stroke-linejoin:miter;stroke-opacity:1"
     d="M 343.80893,349.65549 C 348.09403,324.37564 377.82899,320.38623 386.47463,345.75808 C 400.74108,364.27994 390.94908,403.65453 420.89301,406.65889 C 442.26742,404.74269 470.46031,399.1385 482.43779,422.84746 C 501.1094,453.86691 519.81312,488.06303 518.89398,525.29125 C 509.59202,552.80619 483.10591,528.50466 481.87603,509.4928 C 470.59144,484.37072 462.31076,456.36357 442.8533,436.18797 C 415.97396,429.22446 432.58534,473.5649 441.12448,485.35246 C 458.66266,503.26498 447.91725,546.43012 434.27085,549.56739 C 444.54917,528.96727 446.28637,503.12103 432.34696,483.70183 C 411.35797,443.49069 394.37232,399.91079 364.24895,365.46787 C 357.80116,359.73297 350.45052,355.14812 343.80893,349.65549 z"
     id="path831" />
  <path
     style="fill:url(#linearGradient2811);fill-opacity:0.25806454;fill-rule:evenodd;stroke:none;stroke-width:1pt;stroke-linecap:butt;stroke-linejoin:miter;stroke-opacity:1"
     d="M 65.744034,248.34503 C 130.53418,134.69038 290.8479,115.25733 399.35654,174.01505 C 474.35394,212.2358 538.12102,283.32285 550.70398,368.3821 C 520.29541,440.92821 459.15047,344.34391 430.03814,315.99224 C 383.40253,266.37616 355.26052,192.11449 282.86155,173.98424 C 218.94613,150.94698 138.94844,172.46735 106.26231,234.93614 C 97.081326,246.55015 80.396978,258.79898 65.744034,248.34503 z"
     id="path832" />
  <path
     style="fill:url(#linearGradient2814);fill-opacity:0.20967742;fill-rule:evenodd;stroke:none;stroke-width:1pt;stroke-linecap:butt;stroke-linejoin:miter;stroke-opacity:1"
     d="M 394.46417,618.02051 C 376.94949,558.50193 259.48479,563.25236 256.5448,594.93394 C 303.18749,597.07865 350.05793,603.0557 394.46417,618.02051 z"
     id="path833" />
</svg>
