<?xml version="1.0" encoding="UTF-8" standalone="no"?>
<!--
  mouse_block.svg
 
  Copyright (C) 2008 Jeremiah LaRocco

  This file is part of QRodent

  QRodent is free software: you can redistribute it and/or modify
  it under the terms of the GNU General Public License as published by
  the Free Software Foundation, either version 3 of the License, or
  (at your option) any later version.

  QRodent is distributed in the hope that it will be useful,
  but WITHOUT ANY WARRANTY; without even the implied warranty of
  MERCHANTABILITY or FITNESS FOR A PARTICULAR PURPOSE.  See the
  GNU General Public License for more details.

  You should have received a copy of the GNU General Public License
  along with QRodent.  If not, see <http://www.gnu.org/licenses/>.
-->
<!-- Created with Inkscape (http://www.inkscape.org/) -->
<svg
   xmlns:svg="http://www.w3.org/2000/svg"
   xmlns="http://www.w3.org/2000/svg"
   xmlns:xlink="http://www.w3.org/1999/xlink"
   version="1.0"
   width="64"
   height="64"
   id="svg3911">
  <defs
     id="defs3913">
    <linearGradient
       id="linearGradient4456">
      <stop
         id="stop4458"
         style="stop-color:#0000ff;stop-opacity:1"
         offset="0" />
      <stop
         id="stop4460"
         style="stop-color:#0000ff;stop-opacity:0"
         offset="1" />
    </linearGradient>
    <radialGradient
       cx="47.272728"
       cy="36"
       r="2.3636363"
       fx="47.272728"
       fy="36"
       id="radialGradient4462"
       xlink:href="#linearGradient4456"
       gradientUnits="userSpaceOnUse"
       gradientTransform="matrix(1.232478,-5.8970192e-2,0.2620632,1.9909417,-20.424141,-32.886221)" />
  </defs>
  <g
     id="layer1">
    <path
       d="M 28,26.727273 C 27.192275,26.657897 26.23227,27.33841 25.272727,27.818182 C 24.420138,28.244476 23.877005,28.516043 23.090909,28.909091 C 22.408308,29.250391 21.790977,29.740875 21.272727,30 C 20.667836,30.302446 19.908098,30.819175 19.272727,31.454545 C 18.597962,32.129311 17.783443,32.943829 17.090909,33.636364 C 16.216839,34.510434 15.860071,34.797237 14.909091,35.272727 C 14.105225,35.67466 13.26177,35.732751 12.363636,36.181818 C 11.538305,36.594484 11.284313,37.079323 10.727273,37.636364 C 9.9532284,38.410408 10.064678,39.377653 9.8181818,40.363636 C 9.6010139,41.232308 9.6655421,42.48035 9.8181818,43.090909 C 10.085853,44.161592 10.769443,44.811614 11.272727,45.818182 C 11.756326,46.785378 12.285283,47.322952 12.545455,48.363636 C 12.734588,49.12017 13.401442,49.732899 14,50.181818 C 14.889589,50.84901 15.268122,50.909091 16.545455,50.909091 C 17.575758,50.909091 18.606061,50.909091 19.636364,50.909091 C 20.974966,50.909091 22.101318,50.727273 23.454545,50.727273 C 24.490461,50.727273 25.44548,50.545455 26.545455,50.545455 C 27.575758,50.545455 28.606061,50.545455 29.636364,50.545455 C 30.606061,50.545455 31.575758,50.545455 32.545455,50.545455 C 33.591661,50.545455 34.084745,50.951464 34.727273,51.272727 C 36.395154,52.106668 36.404777,52.545455 38.363636,52.545455 C 39.2937,52.545455 39.784416,52.053896 40.727273,51.818182 C 41.453846,51.636539 41.862852,51.001569 42.181818,50.363636 C 42.708178,49.310918 43.000458,48.725441 43.272727,47.636364 C 43.476019,46.823198 44.161534,46.202102 44.727273,45.636364 C 45.309454,45.054182 45.765302,44.234698 46.363636,43.636364 C 47.014433,42.985567 48.259699,43.075333 49.090909,42.909091 C 49.98083,42.731107 51.08613,42.909091 52,42.909091 C 53.045117,42.909091 53.851497,43.090909 54.909091,43.090909 C 55.878788,43.090909 56.848485,43.090909 57.818182,43.090909 C 58.787879,43.090909 59.757576,43.090909 60.727273,43.090909 C 61.663505,43.090909 62.080751,42.646521 62.545455,42.181818 C 63.189121,41.538151 62.460524,40.120804 62.363636,39.636364 C 62.158779,38.612075 61.858856,38.263167 61.454545,37.454545 C 61.071639,36.688732 60.475551,35.906796 60,35.272727 C 59.206515,34.214748 58.604693,33.230499 57.818182,32.181818 C 57.233351,31.402044 56.988005,30.885101 56.545455,30 C 56.043205,28.995501 56.767073,27.960199 57.272727,27.454545 C 58.028491,26.698781 58.721038,26.194288 59.090909,25.454545 C 59.46809,24.700184 59.272727,23.570236 59.272727,22.727273 C 59.272727,21.248948 58.601198,20.475124 58,19.272727 C 57.549349,18.371424 57.067254,17.976345 56.545455,17.454545 C 56.071726,16.980816 54.272734,17.272727 53.636364,17.272727 C 52.802216,17.272727 51.811684,17.090909 50.909091,17.090909 C 49.65492,17.090909 49.76763,17.141461 49.090909,17.818182 C 48.416441,18.49265 47.919765,18.807508 47.454545,19.272727 C 46.796567,19.930705 46.545455,20.211708 46.545455,21.272727 C 46.545455,22.289782 46.917798,22.926504 47.272727,23.636364 C 47.640884,24.372676 48.180256,24.724149 48.545455,25.454545 C 49.026905,26.417447 49.24051,26.430382 48.181818,25.636364 C 47.477827,25.10837 46.806199,24.604649 46,24 C 45.111575,23.333681 44.818177,22.636359 44.181818,22 C 43.360019,21.178201 42.204391,20.698748 41.272727,20 C 40.433537,19.370607 39.906094,19.134865 39.090909,18.727273 C 38.29967,18.331653 37.912276,18 36.727273,18 C 35.668631,18 34.904424,18.13753 34,18.363636 C 33.235359,18.554797 32.67936,19.32064 32.181818,19.818182 C 31.318909,20.681091 31.090909,21.023218 31.090909,22.181818 C 31.090909,23.181943 31.082316,24.138854 31.272727,25.090909 C 31.452564,25.990092 32.238033,27.021521 32.545455,27.636364 C 33.053075,28.651605 33.149096,29.149096 33.818182,29.818182 C 34.517932,30.517932 35.22156,31.065325 36,31.454545 C 37.026402,31.967746 37.696785,32.424058 38.363636,33.090909 C 39.379733,34.107006 36.784789,33.088592 36.545455,32.909091 C 35.665943,32.249457 35.045452,31.772724 34.363636,31.090909 C 33.842884,30.570157 33.423947,29.69579 33.272727,29.090909 C 33.057569,28.230277 31.414604,27.503308 30.727273,27.090909 C 29.255692,26.207961 28.34694,26.826399 26.727273,26.363636"
       id="path4479"
       style="fill:#b3b3b3;fill-opacity:0.58163267;fill-rule:evenodd;stroke:#000000;stroke-width:1px;stroke-linecap:butt;stroke-linejoin:miter;stroke-opacity:1" />
    <path
       d="M 11.454545,6 C 12.14325,6.1051616 14.002871,6.1818182 15.272727,6.1818182 C 16.32054,6.1818182 17.036745,6.7910997 18,7.2727273 C 18.65638,7.6009174 19.116525,9.0115564 19.272727,9.6363636 C 19.480373,10.466948 19.591779,11.276207 19.818182,12.181818 C 20.05202,13.117172 20.181818,13.750189 20.181818,14.727273 C 20.181818,15.839112 20.034573,16.407161 19.818182,17.272727 C 19.644032,17.969325 18.909563,18.7268 18.545455,19.090909 C 17.81457,19.821793 17.065421,20.150552 16,20.363636 C 15.149698,20.533697 14.268258,21.368105 13.818182,21.818182 C 13.23068,22.405683 12.277171,22.679596 11.454545,23.090909 C 10.530679,23.552842 9.9329492,24.124434 9.0909091,24.545455 C 8.1396443,25.021087 7.6394838,25.987519 7.4545455,26.727273 C 7.2234527,27.651644 7.0082624,28.710748 6.7272727,29.272727 C 6.3270412,30.07319 6.3774654,30.853775 6.1818182,31.636364 C 5.960201,32.522832 6,33.42194 6,34.363636 C 6,35.239208 6.4670899,35.739817 6.9090909,36.181818 C 7.6870789,36.959806 8.3970631,37.487972 8.9090909,38 C 9.5581205,38.64903 10.022982,38.568437 10.727273,39.272727"
       id="path4481"
       style="fill:none;fill-rule:evenodd;stroke:#000000;stroke-width:1px;stroke-linecap:butt;stroke-linejoin:miter;stroke-opacity:1" />
    <path
       d="M 6.3636364,59.090909 C 7.2837713,60.011044 7.5998738,56.800252 8.1818182,55.636364 C 8.6212644,54.757471 9.0948944,54.176504 9.6363636,53.454545 C 10.127284,52.799984 10.398728,51.912272 10.727273,51.090909 C 11.06693,50.241765 11.51905,49.665692 12.363636,49.454545 C 12.553044,49.407194 12.675014,48.987479 12.727273,48.909091"
       id="path4483"
       style="fill:none;fill-rule:evenodd;stroke:#000000;stroke-width:1px;stroke-linecap:butt;stroke-linejoin:miter;stroke-opacity:1" />
    <path
       d="M 23.636364,62.545455 C 23.673711,62.536118 23.636364,60.15436 23.636364,59.454545 C 23.636364,57.950061 22.539774,56.839017 21.818182,55.636364 C 21.302651,54.777146 20.71336,53.790357 20.363636,53.090909 C 19.828628,52.020892 19.701218,51.668791 18.909091,51.272727 C 18.624218,51.130291 18.500687,51.068525 18.181818,50.909091"
       id="path4485"
       style="fill:none;fill-rule:evenodd;stroke:#000000;stroke-width:1px;stroke-linecap:butt;stroke-linejoin:miter;stroke-opacity:1" />
    <path
       d="M 35.090909,61.090909 C 34.840285,60.965597 35.272727,57.96783 35.272727,57.090909 C 35.272727,55.9033 35.177072,55.071925 34.909091,54 C 34.716571,53.22992 34.768705,52.165728 34.545455,51.272727 C 34.516056,51.155134 34.545455,51.030303 34.545455,50.909091"
       id="path4487"
       style="fill:none;fill-rule:evenodd;stroke:#000000;stroke-width:1px;stroke-linecap:butt;stroke-linejoin:miter;stroke-opacity:1" />
    <path
       d="M 48.363636,62 C 48.363636,62 48.363636,62 48.363636,62 C 48.181818,61.333333 48,60.666667 47.818182,60 C 47.290499,58.065164 46.299443,55.871614 45.454545,54.181818 C 44.867945,53.008618 43.68882,52.480774 42.727273,52 C 42.196073,51.7344 42.025011,51.467051 41.636364,51.272727"
       id="path4489"
       style="fill:none;fill-rule:evenodd;stroke:#000000;stroke-width:1px;stroke-linecap:butt;stroke-linejoin:miter;stroke-opacity:1" />
  </g>
  <g
     id="layer4">
    <path
       d="M 49.636364,36 A 2.3636363,1.8181819 0 1 1 44.909092,36 A 2.3636363,1.8181819 0 1 1 49.636364,36 z"
       transform="matrix(0.9989447,-0.4961777,0.8229706,1.6568704,-29.12251,-2.1007491)"
       id="path3945"
       style="opacity:0.92000002;fill:url(#radialGradient4462);fill-opacity:1;stroke:#93ac93;stroke-width:0;stroke-miterlimit:4;stroke-dasharray:none;stroke-opacity:1" />
  </g>
</svg>
