<?xml version="1.0" encoding="UTF-8" standalone="no"?>
<!--
  movable_block.svg
 
  Copyright (C) 2008 Jeremiah LaRocco

  This file is part of QRodent

  QRodent is free software: you can redistribute it and/or modify
  it under the terms of the GNU General Public License as published by
  the Free Software Foundation, either version 3 of the License, or
  (at your option) any later version.

  QRodent is distributed in the hope that it will be useful,
  but WITHOUT ANY WARRANTY; without even the implied warranty of
  MERCHANTABILITY or FITNESS FOR A PARTICULAR PURPOSE.  See the
  GNU General Public License for more details.

  You should have received a copy of the GNU General Public License
  along with QRodent.  If not, see <http://www.gnu.org/licenses/>.
-->
<!-- Created with Inkscape (http://www.inkscape.org/) -->
<svg
   xmlns:svg="http://www.w3.org/2000/svg"
   xmlns="http://www.w3.org/2000/svg"
   xmlns:xlink="http://www.w3.org/1999/xlink"
   version="1.0"
   width="64"
   height="64"
   id="svg3228">
  <defs
     id="defs3230">
    <linearGradient
       id="linearGradient3903">
      <stop
         id="stop3905"
         style="stop-color:#006600;stop-opacity:1"
         offset="0" />
      <stop
         id="stop3907"
         style="stop-color:#006600;stop-opacity:0"
         offset="1" />
    </linearGradient>
    <linearGradient
       id="linearGradient3895">
      <stop
         id="stop3897"
         style="stop-color:#006600;stop-opacity:1"
         offset="0" />
      <stop
         id="stop3899"
         style="stop-color:#006600;stop-opacity:0"
         offset="1" />
    </linearGradient>
    <linearGradient
       id="linearGradient3887">
      <stop
         id="stop3889"
         style="stop-color:#006600;stop-opacity:1"
         offset="0" />
      <stop
         id="stop3891"
         style="stop-color:#006600;stop-opacity:0"
         offset="1" />
    </linearGradient>
    <linearGradient
       id="linearGradient3879">
      <stop
         id="stop3881"
         style="stop-color:#006600;stop-opacity:1"
         offset="0" />
      <stop
         id="stop3883"
         style="stop-color:#006600;stop-opacity:0"
         offset="1" />
    </linearGradient>
    <linearGradient
       id="linearGradient3871">
      <stop
         id="stop3873"
         style="stop-color:#006600;stop-opacity:1"
         offset="0" />
      <stop
         id="stop3875"
         style="stop-color:#006600;stop-opacity:0"
         offset="1" />
    </linearGradient>
    <linearGradient
       id="linearGradient3863">
      <stop
         id="stop3865"
         style="stop-color:#006600;stop-opacity:1"
         offset="0" />
      <stop
         id="stop3867"
         style="stop-color:#006600;stop-opacity:0"
         offset="1" />
    </linearGradient>
    <linearGradient
       id="linearGradient3839">
      <stop
         id="stop3841"
         style="stop-color:#006600;stop-opacity:1"
         offset="0" />
      <stop
         id="stop3843"
         style="stop-color:#006600;stop-opacity:0"
         offset="1" />
    </linearGradient>
    <radialGradient
       cx="34.231934"
       cy="23.03808"
       r="7.8252101"
       fx="34.231934"
       fy="23.03808"
       id="radialGradient3847"
       xlink:href="#linearGradient3839"
       gradientUnits="userSpaceOnUse"
       gradientTransform="matrix(0.9772567,0.222919,-0.4222988,1.8513192,10.507498,-28.231369)" />
    <radialGradient
       cx="42.648739"
       cy="47.031933"
       r="12.907563"
       fx="42.648739"
       fy="47.031933"
       id="radialGradient3869"
       xlink:href="#linearGradient3863"
       gradientUnits="userSpaceOnUse"
       gradientTransform="matrix(1.7747525,-0.4329999,0.7832379,2.2293652,-69.879418,-39.35252)" />
    <radialGradient
       cx="5.2705884"
       cy="50.608402"
       r="8.1747904"
       fx="5.2705884"
       fy="50.608402"
       id="radialGradient3877"
       xlink:href="#linearGradient3871"
       gradientUnits="userSpaceOnUse"
       gradientTransform="matrix(1.7446977,0.1067564,-0.2594603,4.2403052,9.2058728,-164.54934)" />
    <radialGradient
       cx="4.2487397"
       cy="27.643698"
       r="6.8840337"
       fx="4.2487397"
       fy="27.643698"
       id="radialGradient3885"
       xlink:href="#linearGradient3879"
       gradientUnits="userSpaceOnUse"
       gradientTransform="matrix(2.1623037,-4.6874986e-2,8.5761731e-2,2.2021953,-7.3090974,-33.033964)" />
    <radialGradient
       cx="8.4436979"
       cy="7.2067218"
       r="6.7764707"
       fx="8.4436979"
       fy="7.2067218"
       id="radialGradient3893"
       xlink:href="#linearGradient3887"
       gradientUnits="userSpaceOnUse"
       gradientTransform="matrix(1.3887286,-6.5526649e-2,0.1253318,2.6562013,-4.185539,-11.382495)" />
    <radialGradient
       cx="51.200001"
       cy="15.220167"
       r="5.5394959"
       fx="51.200001"
       fy="15.220167"
       id="radialGradient3901"
       xlink:href="#linearGradient3895"
       gradientUnits="userSpaceOnUse"
       gradientTransform="matrix(4.0514276,0.7190558,-0.5272177,2.9705405,-148.20875,-66.807614)" />
    <radialGradient
       cx="49.07563"
       cy="48.833614"
       r="7.7714286"
       fx="49.07563"
       fy="48.833614"
       id="radialGradient3909"
       xlink:href="#linearGradient3903"
       gradientUnits="userSpaceOnUse"
       gradientTransform="matrix(1.982481,-0.1385195,0.2311035,3.307536,-59.501489,-105.88739)" />
  </defs>
  <g
     id="layer1">
    <path
       d="M 9.5193278,18.87731 C 9.4868187,18.870809 10.056782,18.680412 10.594958,18.231932 C 11.570601,17.418897 12.799538,16.99565 13.552941,15.865546 C 14.05908,15.106337 14.592134,14.540102 15.005042,13.714285 C 15.190076,13.344217 15.529641,13.095339 15.704202,12.746218 C 15.933702,12.287218 16.43476,11.951412 16.726051,11.563025 C 17.237459,10.881147 17.478992,10.078301 17.478992,9.196638 C 17.478992,8.6026004 17.586555,8.0286241 17.586555,7.4218481 C 17.586555,7.093542 17.623627,6.6568989 17.747899,6.3462178 C 17.903824,5.9564068 17.909244,5.2084292 17.909244,4.7865539 C 17.909244,4.3642936 18.016807,4.0193018 18.016807,3.6033606 C 18.016807,3.2702895 18.150309,2.7466624 18.231933,2.4201673 C 18.32715,2.039298 18.447059,1.7518657 18.447059,1.3445371 C 18.447059,1.0648824 18.597769,0.79548063 18.662185,0.53781436 C 18.726586,0.28020906 18.769748,0.53699865 18.769748,0.26890679"
       id="path3295"
       style="fill:none;fill-rule:evenodd;stroke:#93ac93;stroke-width:1px;stroke-linecap:butt;stroke-linejoin:miter;stroke-opacity:1" />
    <path
       d="M 40.228572,0.10756225 C 40.241328,0.056539693 40.17479,1.0104579 40.17479,2.3663858 C 40.17479,5.0928005 39.683397,7.9658916 39.09916,10.594957 C 38.928202,11.364268 38.830253,12.072351 38.830253,12.853781 C 38.830253,13.140616 38.830253,13.42745 38.830253,13.714285 C 38.830253,14.370976 38.318538,15.060931 38.077311,15.704201 C 37.722078,16.651491 37.10447,17.483765 36.410084,18.178151 C 36.004117,18.584118 35.597624,18.933961 35.065547,19.199999 C 33.794939,19.835303 32.452256,20.490449 31.247059,21.243697 C 31.069772,21.354501 30.888516,21.458823 30.709244,21.566386 C 29.832376,22.092507 28.681172,22.646523 27.751261,23.018487 C 26.372422,23.570023 24.385642,24.847058 22.910925,24.847058 C 21.733414,24.847058 20.129975,26.005787 19.038656,26.460504 C 18.710798,26.597111 18.005455,27.117233 17.747899,27.374789 C 17.49472,27.627969 17.23239,27.713217 16.941177,27.858823 C 16.803028,27.927898 16.832008,27.926451 16.672269,27.966386"
       id="path3297"
       style="fill:none;fill-rule:evenodd;stroke:#93ac93;stroke-width:1px;stroke-linecap:butt;stroke-linejoin:miter;stroke-opacity:1" />
    <path
       d="M 13.068908,35.011764 C 12.615099,35.238669 13.953765,35.514063 14.359664,35.818487 C 16.525557,37.442907 17.857984,39.531933 19.737815,41.411764 C 20.87104,42.544989 21.678356,43.997683 22.74958,45.068907 C 23.68926,46.008588 24.272839,47.487423 24.685715,48.72605 C 24.920656,49.430873 25.272304,50.050558 25.438656,50.715966 C 25.526418,51.067015 25.546219,51.39294 25.546219,51.791596 C 25.546219,52.311484 25.546219,52.831372 25.546219,53.35126 C 25.546219,53.807752 25.60108,54.315007 25.492437,54.74958 C 25.395291,55.138166 25.303543,55.478926 25.22353,55.878991 C 25.12198,56.386738 24.830883,56.80231 24.578152,57.223529 C 24.536903,57.292277 24.506443,57.366947 24.470589,57.438655 C 23.967951,58.443931 23.408243,59.59688 22.803362,60.504202 C 22.363099,61.164595 22.204646,61.571923 21.512605,61.848739 C 21.029104,62.04214 20.181366,62.014132 19.684034,62.063866 C 19.213002,62.110969 18.709894,62.270664 18.285715,62.440336 C 17.428929,62.78305 16.439094,63.193277 15.489076,63.193277 C 15.115559,63.193277 14.70817,63.284921 14.359664,63.354622 C 14.065143,63.413526 13.693093,63.354622 13.391597,63.354622 C 13.0824,63.354622 12.843113,63.30084 12.531093,63.30084 C 12.452072,63.30084 12.357793,63.47414 12.315967,63.515966"
       id="path3299"
       style="fill:none;fill-rule:evenodd;stroke:#93ac93;stroke-width:1px;stroke-linecap:butt;stroke-linejoin:miter;stroke-opacity:1" />
    <path
       d="M 26.406723,52.060504 C 25.763037,52.060504 27.773617,51.681376 28.665547,51.146218 C 29.412331,50.698148 29.968206,50.026798 30.709244,49.532773 C 31.840724,48.778453 33.686473,46.932015 34.689076,45.929412 C 35.125872,45.492616 36.120433,45.025498 36.678992,44.746218 C 37.423175,44.374127 38.059205,44.132257 38.830253,43.939496 C 39.446394,43.78546 39.821102,43.726717 40.389916,43.40168 C 40.859176,43.133532 41.202482,42.805701 41.626891,42.487395 C 41.920163,42.267441 42.106672,41.771222 42.218488,42.218487 C 42.221174,42.229233 41.380193,43.142136 41.250421,43.40168 C 41.052894,43.796734 40.85597,44.065199 40.766387,44.423529 C 40.689658,44.730446 40.302557,45.021671 40.228572,45.391596 C 40.110262,45.983145 40.121009,46.542957 40.121009,47.166386 C 40.121009,47.595237 40.2325,48.203948 40.336135,48.618487 C 40.602355,49.683368 40.865728,50.736858 41.142858,51.845378 C 41.328495,52.587926 41.660064,53.268824 41.842017,53.996639 C 42.269535,55.706709 42.863866,57.440853 42.863866,59.213445 C 42.863866,60.190367 42.971429,61.184552 42.971429,62.171429 C 42.971429,62.435082 42.908103,62.693642 42.863866,62.870588"
       id="path3301"
       style="fill:none;fill-rule:evenodd;stroke:#93ac93;stroke-width:1px;stroke-linecap:butt;stroke-linejoin:miter;stroke-opacity:1" />
    <path
       d="M 38.937816,12.208403 C 38.937816,12.294851 44.1998,15.157782 44.961345,15.919327 C 45.908851,16.866833 46.642038,18.379893 47.058824,19.630252 C 47.41811,20.708108 47.542858,21.686039 47.542858,22.803361 C 47.542858,23.321854 47.285155,23.565263 47.166387,24.040336 C 46.954697,24.887095 46.736135,25.41031 46.736135,26.352941 C 46.736135,27.241001 47.098183,27.991322 47.489076,28.773109 C 47.863697,29.522351 48.419955,30.184018 48.618488,30.978151 C 48.785182,31.644926 49.224274,32.218103 49.371429,32.806722 C 49.493615,33.295465 50.679278,33.994189 51.092438,34.097479 C 51.732301,34.257445 54.784314,35.737395 55.717648,36.087395 C 56.286126,36.300574 56.870151,36.536865 57.438656,36.678991 C 57.748789,36.756524 58.092023,36.62521 58.406723,36.62521 C 59.076422,36.62521 59.865537,36.677313 60.504202,36.517647 C 61.069191,36.3764 61.411062,36.29622 61.84874,36.033613 C 61.943178,35.97695 62.06894,35.646996 62.117648,35.549579"
       id="path3303"
       style="fill:none;fill-rule:evenodd;stroke:#93ac93;stroke-width:1px;stroke-linecap:butt;stroke-linejoin:miter;stroke-opacity:1" />
    <path
       d="M 61.741177,11.563025 C 61.761218,11.551 61.584339,12.114359 61.794958,12.746218 C 62.069178,13.568878 62.010084,16.578637 62.010084,17.478991 C 62.010084,18.599171 62.440337,19.585959 62.440337,20.705882 C 62.440337,22.016965 63.193278,23.250027 63.193278,24.631932 C 63.193278,25.806083 63.300841,26.998001 63.300841,28.181512 C 63.300841,29.158462 62.824622,30.37353 62.332774,31.193277 C 61.958935,31.816342 61.79902,32.414006 61.633614,33.07563 C 61.60196,33.202245 61.561905,33.32661 61.526051,33.4521 C 61.421907,33.816605 61.364706,34.060334 61.364706,34.420168 C 61.364706,34.730628 61.310925,35.052206 61.310925,35.388235 C 61.310925,35.459944 61.310925,35.531652 61.310925,35.603361"
       id="path3305"
       style="fill:none;fill-rule:evenodd;stroke:#93ac93;stroke-width:1px;stroke-linecap:butt;stroke-linejoin:miter;stroke-opacity:1" />
    <path
       d="M 22.37311,62.655462 C 23.32961,62.806251 24.917177,62.816807 26.084034,62.816807 C 26.599454,62.816807 27.163915,62.858982 27.643698,62.763025 C 27.93681,62.704403 28.309884,62.763025 28.611765,62.763025 C 28.988236,62.763025 29.364706,62.763025 29.741177,62.763025 C 31.14056,62.763025 32.583861,62.978151 33.989916,62.978151 C 35.024396,62.978151 36.033623,63.031933 37.055463,63.031933 C 37.378152,63.031933 37.700841,63.031933 38.02353,63.031933 C 38.417928,63.031933 38.812325,63.031933 39.206723,63.031933 C 39.654902,63.031933 40.103082,63.031933 40.551261,63.031933 C 40.912688,63.031933 41.208502,62.978151 41.57311,62.978151 C 41.842017,62.978151 42.110925,62.978151 42.379832,62.978151 C 42.64874,62.978151 42.917648,62.978151 43.186555,62.978151"
       id="path3309"
       style="fill:none;fill-rule:evenodd;stroke:#93ac93;stroke-width:1px;stroke-linecap:butt;stroke-linejoin:miter;stroke-opacity:1" />
    <path
       d="M 43.455463,62.870588 C 44.073436,62.870588 45.105261,62.978151 45.875631,62.978151 C 47.072545,62.978151 48.248867,63.302086 49.425211,63.515966 C 50.134821,63.644986 51.01305,63.569748 51.737816,63.569748 C 52.383194,63.569748 53.028572,63.569748 53.67395,63.569748 C 54.475749,63.569748 55.339872,63.408403 56.1479,63.408403 C 56.689534,63.408403 57.122398,63.405188 57.546219,63.193277 C 58.144847,62.893963 58.986312,62.819809 59.643698,62.655462 C 59.787116,62.619608 59.930533,62.583753 60.07395,62.547899 C 60.370442,62.473776 60.653461,62.456803 60.934455,62.386555 C 61.006231,62.36861 61.042018,61.996312 61.042018,61.687395 C 61.042018,61.38414 61.044108,61.106249 60.988236,60.826891 C 60.942662,60.599021 61.399837,60.296016 61.526051,60.127731 C 61.777633,59.792288 61.853182,59.316567 62.117648,59.052101 C 62.239522,58.930227 62.17634,58.279516 62.225211,58.084034 C 62.315306,57.723655 62.225211,57.220581 62.225211,56.847059 C 62.225211,56.556817 62.278992,56.23686 62.278992,55.932773 C 62.278992,55.601811 62.332774,55.34156 62.332774,55.018487 C 62.332774,54.645476 62.440337,54.288467 62.440337,53.889076 C 62.440337,53.426728 62.601681,53.002342 62.601681,52.544538 C 62.601681,52.168067 62.601681,51.791596 62.601681,51.415126 C 62.601681,50.913165 62.601681,50.411204 62.601681,49.909244 C 62.601681,49.17423 62.601681,48.439215 62.601681,47.704201 C 62.601681,47.213833 62.655463,46.699187 62.655463,46.198319 C 62.655463,45.427451 62.655463,44.656582 62.655463,43.885714 C 62.655463,43.473389 62.655463,43.061064 62.655463,42.648739 C 62.655463,42.151883 62.5479,41.677661 62.5479,41.196638 C 62.5479,40.748459 62.5479,40.30028 62.5479,39.852101 C 62.5479,39.493557 62.5479,39.135014 62.5479,38.77647 C 62.5479,38.421685 62.494118,38.107574 62.494118,37.754622 C 62.494118,37.427772 62.517541,37.095371 62.440337,36.786554 C 62.377153,36.53382 62.440337,36.188858 62.440337,35.92605 C 62.440337,35.764706 62.440337,35.603361 62.440337,35.442016"
       id="path3311"
       style="fill:none;fill-rule:evenodd;stroke:#93ac93;stroke-width:1px;stroke-linecap:butt;stroke-linejoin:miter;stroke-opacity:1" />
    <path
       d="M 52.436975,34.635294 C 51.28173,35.186096 49.527491,35.471549 48.188236,36.141176 C 48.001243,36.234673 47.829692,36.356302 47.650421,36.463865 C 47.297166,36.675818 47.066514,37.027282 46.843698,37.324369 C 46.668954,37.557361 46.340839,37.782186 46.090757,37.969748 C 45.596034,38.34079 45.129007,39.016284 44.746219,39.47563 C 44.490872,39.782046 44.189271,40.140141 43.939496,40.389916 C 43.657186,40.672226 43.421201,41.003196 43.132774,41.25042 C 42.903927,41.446574 42.754629,41.547055 42.487395,41.680672 C 42.456106,41.696317 42.337134,41.881021 42.326051,41.895798"
       id="path3313"
       style="fill:none;fill-rule:evenodd;stroke:#93ac93;stroke-width:1px;stroke-linecap:butt;stroke-linejoin:miter;stroke-opacity:1" />
    <path
       d="M 0.37647059,13.391596 C 0.35303838,13.391596 2.2936119,14.425041 3.7109244,14.897478 C 5.2594231,15.413645 7.2172778,17.381983 8.3361346,18.50084 C 9.151104,19.315809 10.169278,19.84995 10.971429,20.6521 C 11.546776,21.227447 12.43669,21.767212 12.692437,22.534453 C 13.004594,23.470924 13.883227,24.239864 14.252101,25.223529 C 14.476539,25.82203 14.897479,26.477845 14.897479,27.105882 C 14.897479,27.531888 15.112605,27.953803 15.112605,28.396638 C 15.112605,28.788868 15.220168,29.219669 15.220168,29.633613 C 15.220168,30.167158 15.238499,30.689701 15.112605,31.193277 C 14.980725,31.720798 14.923641,32.018899 14.57479,32.484033 C 14.169134,33.024908 13.637715,33.446632 13.230252,33.989916 C 13.017893,34.273062 12.633719,34.544879 12.369748,34.742857 C 11.912078,35.086109 11.454837,35.523002 10.971429,35.764706 C 10.575812,35.962514 10.053612,36.574959 9.7344539,36.894117 C 9.37269,37.255881 8.8098068,37.67913 8.3361346,37.915966 C 7.4902599,38.338903 6.7930107,39.037108 5.9159665,39.47563 C 5.1713089,39.847959 4.2895562,40.406602 3.4957984,40.605042 C 3.1607884,40.688794 2.8926967,40.766386 2.5277311,40.766386 C 2.2956452,40.766386 2.0175046,40.712605 1.7210084,40.712605 C 1.3226767,40.712605 1.0408557,40.788525 0.69915967,40.873949 C 0.66027018,40.883672 0.30476191,41.071149 0.26890757,41.089076"
       id="path3317"
       style="fill:none;fill-rule:evenodd;stroke:#93ac93;stroke-width:1px;stroke-linecap:butt;stroke-linejoin:miter;stroke-opacity:1" />
  </g>
  <g
     id="layer3">
    <path
       d="M 42.057144,24.201681 A 7.8252101,14.467227 0 1 1 26.406723,24.201681 A 7.8252101,14.467227 0 1 1 42.057144,24.201681 z"
       transform="matrix(0.7272138,0.6864111,-0.6864111,0.7272138,18.151982,-27.49025)"
       id="path3837"
       style="opacity:0.92000002;fill:url(#radialGradient3847);fill-opacity:1;stroke:#93ac93;stroke-width:0;stroke-miterlimit:4;stroke-dasharray:none;stroke-opacity:1" />
    <path
       d="M 55.556302,47.031933 A 12.907563,13.687395 0 1 1 29.741176,47.031933 A 12.907563,13.687395 0 1 1 55.556302,47.031933 z"
       transform="matrix(0.4271445,0.7155362,-0.8586434,0.5125734,55.134552,-21.575292)"
       id="path3849"
       style="opacity:0.92000002;fill:url(#radialGradient3869);fill-opacity:1;stroke:#93ac93;stroke-width:0;stroke-miterlimit:4;stroke-dasharray:none;stroke-opacity:1" />
    <path
       d="M 11.132773,27.643698 A 6.8840337,10.057143 0 1 1 11.132765,27.628015 L 4.2487397,27.643698 z"
       transform="matrix(0.7460937,0,0,1,2.3426472,0.2151261)"
       id="path3851"
       style="opacity:0.92000002;fill:url(#radialGradient3885);fill-opacity:1;stroke:#93ac93;stroke-width:0;stroke-miterlimit:4;stroke-dasharray:none;stroke-opacity:1" />
    <path
       d="M 15.220169,7.2067218 A 6.7764707,5.862185 0 1 1 1.6672273,7.2067218 A 6.7764707,5.862185 0 1 1 15.220169,7.2067218 z"
       id="path3853"
       style="opacity:0.92000002;fill:url(#radialGradient3893);fill-opacity:1;stroke:#93ac93;stroke-width:0;stroke-miterlimit:4;stroke-dasharray:none;stroke-opacity:1" />
    <path
       d="M 57.453345,15.220167 A 6.2533441,12.100841 0 1 1 44.946657,15.220167 A 6.2533441,12.100841 0 1 1 57.453345,15.220167 z"
       transform="matrix(0.9201027,-0.3916771,0.3916771,0.9201027,-0.8488024,18.150589)"
       id="path3855"
       style="opacity:0.92000002;fill:url(#radialGradient3901);fill-opacity:1;stroke:#93ac93;stroke-width:0;stroke-miterlimit:4;stroke-dasharray:none;stroke-opacity:1" />
    <path
       d="M 13.445379,50.608402 A 8.1747904,11.563025 0 1 1 -2.904202,50.608402 A 8.1747904,11.563025 0 1 1 13.445379,50.608402 z"
       transform="matrix(0.8868136,0.4621273,-0.4621273,0.8868136,28.931984,3.7765343)"
       id="path3857"
       style="opacity:0.92000002;fill:url(#radialGradient3877);fill-opacity:1;stroke:#93ac93;stroke-width:0;stroke-miterlimit:4;stroke-dasharray:none;stroke-opacity:1" />
    <path
       d="M 37.109244,56.1479 A 5.2168069,5.5932775 0 1 1 26.67563,56.1479 A 5.2168069,5.5932775 0 1 1 37.109244,56.1479 z"
       transform="translate(2.3663866,-0.1613445)"
       id="path3859"
       style="opacity:0.92000002;fill:#006600;fill-opacity:0.85714285;stroke:#93ac93;stroke-width:0;stroke-miterlimit:4;stroke-dasharray:none;stroke-opacity:1" />
    <path
       d="M 56.847059,48.833614 A 7.7714286,11.186555 0 1 1 41.304202,48.833614 A 7.7714286,11.186555 0 1 1 56.847059,48.833614 z"
       transform="translate(1.6672269,0.8067227)"
       id="path3861"
       style="opacity:0.92000002;fill:url(#radialGradient3909);fill-opacity:1;stroke:#93ac93;stroke-width:0;stroke-miterlimit:4;stroke-dasharray:none;stroke-opacity:1" />
  </g>
</svg>
